<svg width="29" height="26" viewBox="0 0 29 26" fill="none" xmlns="http://www.w3.org/2000/svg">
<path d="M22.6096 2.79414L21.1584 4.32463L26.5788 8.98182L28.0299 7.45133C28.286 7.18079 28.4176 6.82352 28.3957 6.45791C28.3739 6.0923 28.2004 5.74821 27.9134 5.50114L24.6601 2.70553C24.3726 2.45905 23.9952 2.32995 23.6108 2.34656C23.2264 2.36317 22.8663 2.52414 22.6096 2.79414Z" fill="black"/>
<path d="M9.35283 22.9362C9.24771 22.952 9.13996 22.9455 9.03723 22.9173C8.93449 22.8892 8.83928 22.8399 8.75833 22.7731C8.67739 22.7063 8.61271 22.6235 8.56886 22.5307C8.52502 22.4378 8.50308 22.3372 8.50462 22.2359L8.57695 17.5865L20.1903 5.34492L25.6127 10.0023L13.9995 22.2419L9.35283 22.9362Z" fill="black"/>
<path d="M3.74266 14.3679C3.76197 14.3137 3.79136 14.2684 3.82682 14.2379C3.86228 14.2075 3.90209 14.1934 3.94084 14.1977C3.97958 14.202 4.01536 14.2244 4.04333 14.2618C4.07129 14.2993 4.09007 14.35 4.0971 14.407L4.47043 17.3064C4.47551 17.3468 4.4865 17.3841 4.50263 17.4159C4.51876 17.4476 4.53965 17.473 4.56383 17.4902L6.29819 18.7379C6.32378 18.756 6.3457 18.7831 6.36222 18.8173C6.37875 18.8514 6.38945 18.8916 6.39348 18.9348C6.39752 18.9779 6.39478 19.0228 6.38549 19.066C6.37619 19.1092 6.36059 19.1495 6.3399 19.1838C6.31236 19.2295 6.27696 19.2626 6.23847 19.2786L4.27219 20.1196C4.24483 20.1311 4.21891 20.1513 4.19624 20.1788C4.17357 20.2062 4.1547 20.2403 4.14094 20.2785L3.14684 23.0231C3.12753 23.0772 3.09814 23.1226 3.06268 23.1531C3.02722 23.1835 2.98741 23.1975 2.94867 23.1933C2.90993 23.189 2.87414 23.1666 2.84618 23.1291C2.81821 23.0917 2.79944 23.041 2.7924 22.984L2.41907 20.0845C2.41411 20.0444 2.4033 20.0072 2.38739 19.9755C2.37148 19.9438 2.35085 19.9183 2.32692 19.9009L0.591311 18.6531C0.557099 18.6289 0.52967 18.5887 0.512759 18.5379C0.495849 18.487 0.490278 18.4281 0.496805 18.369C0.503332 18.3099 0.521641 18.2535 0.549238 18.2076C0.576834 18.1617 0.612378 18.1284 0.65103 18.1123L2.61731 17.2714C2.64452 17.26 2.67033 17.2401 2.69295 17.213C2.71558 17.1859 2.73448 17.1522 2.74835 17.1143L3.74412 14.3661L3.74266 14.3679Z" fill="black"/>
</svg>
