<svg width="18" height="23" viewBox="0 0 18 23" fill="none" xmlns="http://www.w3.org/2000/svg">
<path d="M7.82875 22.9866C7.76606 23.0009 7.7003 23.0038 7.63611 22.995C7.57192 22.9861 7.51089 22.9658 7.45733 22.9355C7.40377 22.9051 7.35901 22.8655 7.3262 22.8193C7.29339 22.7732 7.27335 22.7217 7.2675 22.6685L7 20.2262L13.2225 13.1346L16.8225 15.2628L10.6 22.3534L7.82875 22.9866Z" fill="black"/>
<ellipse cx="6" cy="8.61961" rx="1" ry="1.23137" fill="black"/>
<ellipse cx="6" cy="8.61961" rx="1" ry="1.23137" fill="black"/>
<ellipse cx="12" cy="8.61961" rx="1" ry="1.23137" fill="black"/>
<ellipse cx="12" cy="8.61961" rx="1" ry="1.23137" fill="black"/>
<rect x="0.5" y="2.14185" width="17" height="12.9555" rx="2.5" stroke="black"/>
<path fill-rule="evenodd" clip-rule="evenodd" d="M12.5948 1.64183C12.5983 1.61464 12.6 1.58727 12.6 1.55973C12.6 0.698317 10.8987 0 8.8 0C6.70132 0 5 0.698317 5 1.55973C5 1.58727 5.00174 1.61464 5.00517 1.64183H12.5948Z" fill="black"/>
<path d="M17 18.0601C14.5673 18.6795 7.9614 19.5468 1 18.0601" stroke="black"/>
</svg>
