<svg width="51" height="67" viewBox="0 0 51 67" fill="none" xmlns="http://www.w3.org/2000/svg">
<path d="M22.1815 66.0453C22.0039 66.086 21.8175 66.0941 21.6357 66.0691C21.4538 66.0441 21.2809 65.9865 21.1291 65.9005C20.9774 65.8145 20.8506 65.7022 20.7576 65.5714C20.6647 65.4407 20.6079 65.2948 20.5913 65.144L19.8334 58.2244L37.4638 38.1313L47.6638 44.1613L30.0334 64.2514L22.1815 66.0453Z" fill="black"/>
<ellipse cx="17" cy="25.3387" rx="2.83333" ry="3.48888" fill="black"/>
<ellipse cx="17" cy="25.3387" rx="2.83333" ry="3.48888" fill="black"/>
<ellipse cx="34" cy="25.3387" rx="2.83333" ry="3.48888" fill="black"/>
<ellipse cx="34" cy="25.3387" rx="2.83333" ry="3.48888" fill="black"/>
<rect x="0.5" y="6.0686" width="50" height="38.5406" rx="2.5" stroke="black"/>
<path fill-rule="evenodd" clip-rule="evenodd" d="M35.6853 5.56856C35.695 5.49155 35.7 5.41401 35.7 5.336C35.7 2.89531 30.8796 0.916748 24.9333 0.916748C18.987 0.916748 14.1666 2.89531 14.1666 5.336C14.1666 5.41401 14.1716 5.49155 14.1813 5.56856H35.6853Z" fill="black"/>
<path d="M48.1666 52.0872C41.2738 53.8424 22.5573 56.2996 2.83329 52.0872" stroke="black"/>
</svg>
