<svg width="20" height="23" viewBox="0 0 20 23" fill="none" xmlns="http://www.w3.org/2000/svg">
<path d="M9.66183 8.36804L8.76611 9.44804L12.912 12.0405L13.8078 10.9605C13.9658 10.7697 14.0301 10.5322 13.9867 10.3002C13.9432 10.0682 13.7955 9.86062 13.5759 9.72304L11.0875 8.16679C10.8676 8.02963 10.594 7.97378 10.3267 8.01151C10.0594 8.04924 9.82032 8.17746 9.66183 8.36804Z" fill="black"/>
<path d="M1.95476 22.1693C1.88254 22.1868 1.80677 22.1903 1.73283 22.1795C1.65888 22.1688 1.58857 22.144 1.52687 22.107C1.46517 22.0701 1.41359 22.0218 1.3758 21.9655C1.338 21.9093 1.31492 21.8466 1.30817 21.7818L1 18.8068L8.16862 10.168L12.316 12.7605L5.14737 21.398L1.95476 22.1693Z" fill="black"/>
<path d="M16.7796 11.1246C16.7928 11.0881 16.8169 11.0565 16.8487 11.0342C16.8804 11.012 16.9183 11 16.9571 11C16.9959 11 17.0337 11.012 17.0655 11.0342C17.0973 11.0565 17.1214 11.0881 17.1346 11.1246L17.8196 12.9796C17.8292 13.0051 17.8443 13.0283 17.8637 13.0475C17.8831 13.0667 17.9064 13.0814 17.9321 13.0908L19.7858 13.7771C19.8223 13.7903 19.8539 13.8144 19.8761 13.8461C19.8984 13.8779 19.9104 13.9158 19.9104 13.9546C19.9104 13.9934 19.8984 14.0312 19.8761 14.063C19.8539 14.0947 19.8223 14.1189 19.7858 14.1321L17.9321 14.8171C17.9063 14.8265 17.8828 14.8414 17.8634 14.8609C17.844 14.8803 17.829 14.9037 17.8196 14.9296L17.1346 16.7833C17.1213 16.8198 17.0972 16.8513 17.0654 16.8737C17.0337 16.896 16.9959 16.9081 16.9571 16.9083C16.9182 16.9083 16.8803 16.8963 16.8486 16.8739C16.8168 16.8515 16.7927 16.8199 16.7796 16.7833L16.0933 14.9296C16.084 14.9037 16.069 14.8802 16.0496 14.8608C16.0302 14.8413 16.0067 14.8264 15.9808 14.8171L14.1271 14.1321C14.09 14.1194 14.0578 14.0955 14.035 14.0637C14.0123 14.0319 14 13.9937 14 13.9546C14 13.9154 14.0123 13.8772 14.035 13.8454C14.0578 13.8136 14.09 13.7897 14.1271 13.7771L15.9821 13.0908C16.0076 13.0812 16.0308 13.0661 16.05 13.0467C16.0692 13.0273 16.084 13.004 16.0933 12.9783L16.7796 11.1246Z" fill="black"/>
<path d="M2.77456 3.12456C2.78776 3.08807 2.81188 3.05654 2.84364 3.03425C2.8754 3.01196 2.91326 3 2.95206 3C2.99086 3 3.02872 3.01196 3.06048 3.03425C3.09224 3.05654 3.11636 3.08807 3.12956 3.12456L3.81581 4.97831C3.82524 5.00412 3.8402 5.02756 3.85963 5.04699C3.87906 5.06642 3.9025 5.08138 3.92831 5.09081L5.78081 5.77581C5.80811 5.78569 5.83276 5.80174 5.85284 5.8227C5.87293 5.84367 5.88791 5.86898 5.89662 5.89667C5.90532 5.92437 5.90752 5.9537 5.90305 5.98238C5.89857 6.01107 5.88754 6.03833 5.87081 6.06206C5.84856 6.09365 5.81714 6.11765 5.78081 6.13081L3.92706 6.81706C3.90125 6.82649 3.87781 6.84145 3.85838 6.86088C3.83895 6.88031 3.82399 6.90375 3.81456 6.92956L3.13081 8.78081C3.11761 8.8173 3.09349 8.84883 3.06173 8.87112C3.02997 8.89341 2.99211 8.90537 2.95331 8.90537C2.91451 8.90537 2.87665 8.89341 2.84489 8.87112C2.81313 8.84883 2.78901 8.8173 2.77581 8.78081L2.08956 6.92706C2.08026 6.90138 2.0655 6.87801 2.04629 6.85859C2.02708 6.83917 2.00389 6.82414 1.97831 6.81456L0.124561 6.12956C0.0880715 6.11636 0.0565356 6.09224 0.034247 6.06048C0.0119584 6.02872 0 5.99086 0 5.95206C0 5.91326 0.0119584 5.8754 0.034247 5.84364C0.0565356 5.81188 0.0880715 5.78776 0.124561 5.77456L1.97831 5.08831C2.004 5.07901 2.02736 5.06425 2.04678 5.04504C2.0662 5.02583 2.08123 5.00264 2.09081 4.97706L2.77581 3.12331L2.77456 3.12456Z" fill="black"/>
<path d="M13.7771 0.12456C13.7903 0.0880712 13.8144 0.0565355 13.8461 0.0342469C13.8779 0.0119583 13.9158 0 13.9546 0C13.9934 0 14.0312 0.0119583 14.063 0.0342469C14.0947 0.0565355 14.1189 0.0880712 14.1321 0.12456L14.8183 1.97831C14.8275 2.00404 14.8423 2.02744 14.8615 2.04687C14.8807 2.0663 14.9039 2.0813 14.9296 2.09081L16.7833 2.77581C16.8106 2.78569 16.8353 2.80174 16.8553 2.8227C16.8754 2.84367 16.8904 2.86898 16.8991 2.89667C16.9078 2.92437 16.91 2.9537 16.9055 2.98238C16.9011 3.01107 16.89 3.03833 16.8733 3.06206C16.8511 3.09365 16.8196 3.11765 16.7833 3.13081L14.9296 3.81706C14.9037 3.82642 14.8802 3.84135 14.8608 3.86079C14.8413 3.88023 14.8264 3.90371 14.8171 3.92956L14.1321 5.78206C14.1189 5.81855 14.0947 5.85008 14.063 5.87237C14.0312 5.89466 13.9934 5.90662 13.9546 5.90662C13.9158 5.90662 13.8779 5.89466 13.8461 5.87237C13.8144 5.85008 13.7903 5.81855 13.7771 5.78206L13.0908 3.92831C13.0815 3.90246 13.0665 3.87898 13.0471 3.85954C13.0276 3.8401 13.0042 3.82517 12.9783 3.81581L11.1246 3.13081C11.0881 3.11761 11.0565 3.09349 11.0342 3.06173C11.012 3.02997 11 2.99211 11 2.95331C11 2.91451 11.012 2.87665 11.0342 2.84489C11.0565 2.81313 11.0881 2.78901 11.1246 2.77581L12.9796 2.08956C13.0052 2.08019 13.0285 2.0654 13.0479 2.0462C13.0674 2.027 13.0824 2.00385 13.0921 1.97831L13.7771 0.12456Z" fill="black"/>
</svg>
